<?xml version="1.0" encoding="utf-8"?>
<!-- Generator: Adobe Illustrator 23.0.2, SVG Export Plug-In . SVG Version: 6.00 Build 0)  -->
<svg version="1.1" id="Livello_1" xmlns="http://www.w3.org/2000/svg" xmlns:xlink="http://www.w3.org/1999/xlink" x="0px" y="0px"
	 viewBox="0 0 512 512" style="enable-background:new 0 0 512 512;" xml:space="preserve">
<path d="M88.8,512h139.4c7.6,0,13.8-6.2,13.8-13.8V343.8c0-7.6-6.2-13.8-13.8-13.8h-32.4c-7.6,0-13.8-6.2-13.8-13.8v-32.4
	c0-7.6,6.2-13.8,13.8-13.8h32.4c7.6,0,13.8-6.2,13.8-13.8v-47.4c0-49.1,39.8-88.8,88.8-88.8h47.4c7.6,0,13.8,6.2,13.8,13.8v32.4
	c0,7.6-6.2,13.8-13.8,13.8h-32.4c-24.2,0-43.8,19.6-43.8,43.8v32.4c0,7.6,6.2,13.8,13.8,13.8H373c8.5,0,15,7.7,13.6,16.1l-5.4,32.4
	c-1.1,6.7-6.9,11.5-13.6,11.5h-51.8c-7.6,0-13.8,6.2-13.8,13.8v154.4c0,7.6,6.2,13.8,13.8,13.8h107.4c49.1,0,88.8-39.8,88.8-88.8
	V88.8C512,39.8,472.2,0,423.2,0H88.8C39.8,0,0,39.8,0,88.8v334.4C0,472.2,39.8,512,88.8,512z M30,88.8C30,56.3,56.3,30,88.8,30
	h334.4c32.5,0,58.8,26.3,58.8,58.8v334.4c0,32.5-26.3,58.8-58.8,58.8h-77.4c-7.6,0-13.8-6.2-13.8-13.8v-94.4
	c0-7.6,6.2-13.8,13.8-13.8H393c6.8,0,12.5-4.9,13.6-11.5l15.4-92.4c1.4-8.4-5.1-16.1-13.6-16.1h-62.6c-7.6,0-13.8-6.2-13.8-13.8
	v-2.4c0-7.6,6.2-13.8,13.8-13.8h62.4c7.6,0,13.8-6.2,13.8-13.8v-92.4c0-7.6-6.2-13.8-13.8-13.8h-77.4C265.2,90,212,143.2,212,208.8
	v17.4c0,7.6-6.2,13.8-13.8,13.8h-32.4c-7.6,0-13.8,6.2-13.8,13.8v92.4c0,7.6,6.2,13.8,13.8,13.8h32.4c7.6,0,13.8,6.2,13.8,13.8v94.4
	c0,7.6-6.2,13.8-13.8,13.8H88.8C56.3,482,30,455.7,30,423.2V88.8z"/>
</svg>
